<?xml version="1.0" encoding="UTF-8" standalone="no"?>
<!DOCTYPE svg PUBLIC "-//W3C//DTD SVG 1.1//EN"
 "http://www.w3.org/Graphics/SVG/1.1/DTD/svg11.dtd">
<!-- Generated by graphviz version 2.38.0 (20140413.2041)
 -->
<!-- Title: controllers_diagram Pages: 1 -->
<svg width="753pt" height="728pt"
 viewBox="0.00 0.00 752.50 727.50" xmlns="http://www.w3.org/2000/svg" xmlns:xlink="http://www.w3.org/1999/xlink">
<g id="graph0" class="graph" transform="scale(1 1) rotate(0) translate(308 403.5)">
<title>controllers_diagram</title>
<polygon fill="none" stroke="none" points="-308,324 -308,-403.5 444.5,-403.5 444.5,324 -308,324"/>
<!-- _diagram_info -->
<g id="node1" class="node"><title>_diagram_info</title>
<text text-anchor="start" x="72" y="-127.6" font-family="Times,serif" font-size="13.00">Controllers diagram</text>
<text text-anchor="start" x="72" y="-113.6" font-family="Times,serif" font-size="13.00">Date: Aug 30 2016 &#45; 20:30</text>
<text text-anchor="start" x="72" y="-99.6" font-family="Times,serif" font-size="13.00">Migration version: 20160830225121</text>
<text text-anchor="start" x="72" y="-85.6" font-family="Times,serif" font-size="13.00">Generated by RailRoady 1.5.1</text>
<text text-anchor="start" x="72" y="-71.6" font-family="Times,serif" font-size="13.00">http://railroady.prestonlee.com</text>
</g>
<!-- UsersController -->
<g id="node2" class="node"><title>UsersController</title>
<path fill="none" stroke="black" d="M-51.5,111.5C-51.5,111.5 27.5,111.5 27.5,111.5 33.5,111.5 39.5,105.5 39.5,99.5 39.5,99.5 39.5,-89.5 39.5,-89.5 39.5,-95.5 33.5,-101.5 27.5,-101.5 27.5,-101.5 -51.5,-101.5 -51.5,-101.5 -57.5,-101.5 -63.5,-95.5 -63.5,-89.5 -63.5,-89.5 -63.5,99.5 -63.5,99.5 -63.5,105.5 -57.5,111.5 -51.5,111.5"/>
<text text-anchor="middle" x="-12" y="-86.3" font-family="Times,serif" font-size="14.00">UsersController</text>
<polyline fill="none" stroke="black" points="-63.5,-78.5 39.5,-78.5 "/>
<text text-anchor="start" x="-55.5" y="-63.3" font-family="Times,serif" font-size="14.00">create</text>
<text text-anchor="start" x="-55.5" y="-48.3" font-family="Times,serif" font-size="14.00">destroy</text>
<text text-anchor="start" x="-55.5" y="-33.3" font-family="Times,serif" font-size="14.00">edit</text>
<text text-anchor="start" x="-55.5" y="-18.3" font-family="Times,serif" font-size="14.00">index</text>
<text text-anchor="start" x="-55.5" y="-3.3" font-family="Times,serif" font-size="14.00">new</text>
<text text-anchor="start" x="-55.5" y="11.7" font-family="Times,serif" font-size="14.00">show</text>
<text text-anchor="start" x="-55.5" y="26.7" font-family="Times,serif" font-size="14.00">update</text>
<polyline fill="none" stroke="black" points="-63.5,34.5 39.5,34.5 "/>
<polyline fill="none" stroke="black" points="-63.5,58.5 39.5,58.5 "/>
<text text-anchor="start" x="-55.5" y="73.7" font-family="Times,serif" font-size="14.00">_layout</text>
<text text-anchor="start" x="-55.5" y="88.7" font-family="Times,serif" font-size="14.00">set_user</text>
<text text-anchor="start" x="-55.5" y="103.7" font-family="Times,serif" font-size="14.00">user_params</text>
</g>
<!-- UserInterestsController -->
<g id="node3" class="node"><title>UserInterestsController</title>
<path fill="none" stroke="black" d="M-99.5,-129C-99.5,-129 19.5,-129 19.5,-129 25.5,-129 31.5,-135 31.5,-141 31.5,-141 31.5,-255 31.5,-255 31.5,-261 25.5,-267 19.5,-267 19.5,-267 -99.5,-267 -99.5,-267 -105.5,-267 -111.5,-261 -111.5,-255 -111.5,-255 -111.5,-141 -111.5,-141 -111.5,-135 -105.5,-129 -99.5,-129"/>
<text text-anchor="middle" x="-40" y="-251.8" font-family="Times,serif" font-size="14.00">UserInterestsController</text>
<polyline fill="none" stroke="black" points="-111.5,-244 31.5,-244 "/>
<text text-anchor="start" x="-103.5" y="-228.8" font-family="Times,serif" font-size="14.00">create</text>
<text text-anchor="start" x="-103.5" y="-213.8" font-family="Times,serif" font-size="14.00">destroy</text>
<text text-anchor="start" x="-103.5" y="-198.8" font-family="Times,serif" font-size="14.00">index</text>
<polyline fill="none" stroke="black" points="-111.5,-191 31.5,-191 "/>
<polyline fill="none" stroke="black" points="-111.5,-167 31.5,-167 "/>
<text text-anchor="start" x="-103.5" y="-151.8" font-family="Times,serif" font-size="14.00">_layout</text>
<text text-anchor="start" x="-103.5" y="-136.8" font-family="Times,serif" font-size="14.00">user_interest_params</text>
</g>
<!-- LandingsController -->
<g id="node4" class="node"><title>LandingsController</title>
<path fill="none" stroke="black" d="M12,319.5C12,319.5 110,319.5 110,319.5 116,319.5 122,313.5 122,307.5 122,307.5 122,238.5 122,238.5 122,232.5 116,226.5 110,226.5 110,226.5 12,226.5 12,226.5 6,226.5 0,232.5 0,238.5 0,238.5 0,307.5 0,307.5 0,313.5 6,319.5 12,319.5"/>
<text text-anchor="middle" x="61" y="241.7" font-family="Times,serif" font-size="14.00">LandingsController</text>
<polyline fill="none" stroke="black" points="0,249.5 122,249.5 "/>
<text text-anchor="start" x="8" y="264.7" font-family="Times,serif" font-size="14.00">welcome</text>
<polyline fill="none" stroke="black" points="0,272.5 122,272.5 "/>
<polyline fill="none" stroke="black" points="0,296.5 122,296.5 "/>
<text text-anchor="start" x="8" y="311.7" font-family="Times,serif" font-size="14.00">_layout</text>
</g>
<!-- ApplicationController -->
<g id="node5" class="node"><title>ApplicationController</title>
<path fill="none" stroke="black" d="M300,287.5C300,287.5 416,287.5 416,287.5 422,287.5 428,281.5 428,275.5 428,275.5 428,190.5 428,190.5 428,184.5 422,178.5 416,178.5 416,178.5 300,178.5 300,178.5 294,178.5 288,184.5 288,190.5 288,190.5 288,275.5 288,275.5 288,281.5 294,287.5 300,287.5"/>
<text text-anchor="middle" x="358" y="193.7" font-family="Times,serif" font-size="14.00">ApplicationController</text>
<polyline fill="none" stroke="black" points="288,201.5 428,201.5 "/>
<polyline fill="none" stroke="black" points="288,225.5 428,225.5 "/>
<polyline fill="none" stroke="black" points="288,249.5 428,249.5 "/>
<text text-anchor="start" x="296" y="264.7" font-family="Times,serif" font-size="14.00">_layout</text>
<text text-anchor="start" x="296" y="279.7" font-family="Times,serif" font-size="14.00">after_sign_in_path_for</text>
</g>
<!-- RequestsController -->
<g id="node6" class="node"><title>RequestsController</title>
<path fill="none" stroke="black" d="M331.5,143.5C331.5,143.5 428.5,143.5 428.5,143.5 434.5,143.5 440.5,137.5 440.5,131.5 440.5,131.5 440.5,62.5 440.5,62.5 440.5,56.5 434.5,50.5 428.5,50.5 428.5,50.5 331.5,50.5 331.5,50.5 325.5,50.5 319.5,56.5 319.5,62.5 319.5,62.5 319.5,131.5 319.5,131.5 319.5,137.5 325.5,143.5 331.5,143.5"/>
<text text-anchor="middle" x="380" y="65.7" font-family="Times,serif" font-size="14.00">RequestsController</text>
<polyline fill="none" stroke="black" points="319.5,73.5 440.5,73.5 "/>
<text text-anchor="start" x="327.5" y="88.7" font-family="Times,serif" font-size="14.00">index</text>
<polyline fill="none" stroke="black" points="319.5,96.5 440.5,96.5 "/>
<polyline fill="none" stroke="black" points="319.5,120.5 440.5,120.5 "/>
<text text-anchor="start" x="327.5" y="135.7" font-family="Times,serif" font-size="14.00">_layout</text>
</g>
<!-- InterestsController -->
<g id="node7" class="node"><title>InterestsController</title>
<path fill="none" stroke="black" d="M188,-176.5C188,-176.5 282,-176.5 282,-176.5 288,-176.5 294,-182.5 294,-188.5 294,-188.5 294,-317.5 294,-317.5 294,-323.5 288,-329.5 282,-329.5 282,-329.5 188,-329.5 188,-329.5 182,-329.5 176,-323.5 176,-317.5 176,-317.5 176,-188.5 176,-188.5 176,-182.5 182,-176.5 188,-176.5"/>
<text text-anchor="middle" x="235" y="-314.3" font-family="Times,serif" font-size="14.00">InterestsController</text>
<polyline fill="none" stroke="black" points="176,-306.5 294,-306.5 "/>
<text text-anchor="start" x="184" y="-291.3" font-family="Times,serif" font-size="14.00">destroy</text>
<text text-anchor="start" x="184" y="-276.3" font-family="Times,serif" font-size="14.00">edit</text>
<text text-anchor="start" x="184" y="-261.3" font-family="Times,serif" font-size="14.00">index</text>
<text text-anchor="start" x="184" y="-246.3" font-family="Times,serif" font-size="14.00">show</text>
<text text-anchor="start" x="184" y="-231.3" font-family="Times,serif" font-size="14.00">update</text>
<polyline fill="none" stroke="black" points="176,-223.5 294,-223.5 "/>
<polyline fill="none" stroke="black" points="176,-199.5 294,-199.5 "/>
<text text-anchor="start" x="184" y="-184.3" font-family="Times,serif" font-size="14.00">_layout</text>
</g>
<!-- Users::ConfirmationsController -->
<g id="node8" class="node"><title>Users::ConfirmationsController</title>
<path fill="none" stroke="black" d="M76.5,191C76.5,191 241.5,191 241.5,191 247.5,191 253.5,185 253.5,179 253.5,179 253.5,109 253.5,109 253.5,103 247.5,97 241.5,97 241.5,97 76.5,97 76.5,97 70.5,97 64.5,103 64.5,109 64.5,109 64.5,179 64.5,179 64.5,185 70.5,191 76.5,191"/>
<text text-anchor="middle" x="159" y="112.2" font-family="Times,serif" font-size="14.00">Users::ConfirmationsController</text>
<polyline fill="none" stroke="black" points="64.5,120 253.5,120 "/>
<polyline fill="none" stroke="black" points="64.5,144 253.5,144 "/>
<polyline fill="none" stroke="black" points="64.5,168 253.5,168 "/>
<text text-anchor="start" x="72.5" y="183.2" font-family="Times,serif" font-size="14.00">_layout</text>
</g>
<!-- Users::SessionsController -->
<g id="node9" class="node"><title>Users::SessionsController</title>
<path fill="none" stroke="black" d="M-3.5,-305C-3.5,-305 129.5,-305 129.5,-305 135.5,-305 141.5,-311 141.5,-317 141.5,-317 141.5,-387 141.5,-387 141.5,-393 135.5,-399 129.5,-399 129.5,-399 -3.5,-399 -3.5,-399 -9.5,-399 -15.5,-393 -15.5,-387 -15.5,-387 -15.5,-317 -15.5,-317 -15.5,-311 -9.5,-305 -3.5,-305"/>
<text text-anchor="middle" x="63" y="-383.8" font-family="Times,serif" font-size="14.00">Users::SessionsController</text>
<polyline fill="none" stroke="black" points="-15.5,-376 141.5,-376 "/>
<polyline fill="none" stroke="black" points="-15.5,-352 141.5,-352 "/>
<polyline fill="none" stroke="black" points="-15.5,-328 141.5,-328 "/>
<text text-anchor="start" x="-7.5" y="-312.8" font-family="Times,serif" font-size="14.00">_layout</text>
</g>
<!-- Users::OmniauthCallbacksController -->
<g id="node10" class="node"><title>Users::OmniauthCallbacksController</title>
<path fill="none" stroke="black" d="M76,63C76,63 270,63 270,63 276,63 282,57 282,51 282,51 282,-19 282,-19 282,-25 276,-31 270,-31 270,-31 76,-31 76,-31 70,-31 64,-25 64,-19 64,-19 64,51 64,51 64,57 70,63 76,63"/>
<text text-anchor="middle" x="173" y="-15.8" font-family="Times,serif" font-size="14.00">Users::OmniauthCallbacksController</text>
<polyline fill="none" stroke="black" points="64,-8 282,-8 "/>
<polyline fill="none" stroke="black" points="64,16 282,16 "/>
<polyline fill="none" stroke="black" points="64,40 282,40 "/>
<text text-anchor="start" x="72" y="55.2" font-family="Times,serif" font-size="14.00">_layout</text>
</g>
<!-- Users::UnlocksController -->
<g id="node11" class="node"><title>Users::UnlocksController</title>
<path fill="none" stroke="black" d="M-195.5,-305C-195.5,-305 -64.5,-305 -64.5,-305 -58.5,-305 -52.5,-311 -52.5,-317 -52.5,-317 -52.5,-387 -52.5,-387 -52.5,-393 -58.5,-399 -64.5,-399 -64.5,-399 -195.5,-399 -195.5,-399 -201.5,-399 -207.5,-393 -207.5,-387 -207.5,-387 -207.5,-317 -207.5,-317 -207.5,-311 -201.5,-305 -195.5,-305"/>
<text text-anchor="middle" x="-130" y="-383.8" font-family="Times,serif" font-size="14.00">Users::UnlocksController</text>
<polyline fill="none" stroke="black" points="-207.5,-376 -52.5,-376 "/>
<polyline fill="none" stroke="black" points="-207.5,-352 -52.5,-352 "/>
<polyline fill="none" stroke="black" points="-207.5,-328 -52.5,-328 "/>
<text text-anchor="start" x="-199.5" y="-312.8" font-family="Times,serif" font-size="14.00">_layout</text>
</g>
<!-- Users::PasswordsController -->
<g id="node12" class="node"><title>Users::PasswordsController</title>
<path fill="none" stroke="black" d="M-244.5,-1C-244.5,-1 -101.5,-1 -101.5,-1 -95.5,-1 -89.5,-7 -89.5,-13 -89.5,-13 -89.5,-83 -89.5,-83 -89.5,-89 -95.5,-95 -101.5,-95 -101.5,-95 -244.5,-95 -244.5,-95 -250.5,-95 -256.5,-89 -256.5,-83 -256.5,-83 -256.5,-13 -256.5,-13 -256.5,-7 -250.5,-1 -244.5,-1"/>
<text text-anchor="middle" x="-173" y="-79.8" font-family="Times,serif" font-size="14.00">Users::PasswordsController</text>
<polyline fill="none" stroke="black" points="-256.5,-72 -89.5,-72 "/>
<polyline fill="none" stroke="black" points="-256.5,-48 -89.5,-48 "/>
<polyline fill="none" stroke="black" points="-256.5,-24 -89.5,-24 "/>
<text text-anchor="start" x="-248.5" y="-8.8" font-family="Times,serif" font-size="14.00">_layout</text>
</g>
<!-- Users::RegistrationsController -->
<g id="node13" class="node"><title>Users::RegistrationsController</title>
<path fill="none" stroke="black" d="M-228,239.5C-228,239.5 -70,239.5 -70,239.5 -64,239.5 -58,233.5 -58,227.5 -58,227.5 -58,158.5 -58,158.5 -58,152.5 -64,146.5 -70,146.5 -70,146.5 -228,146.5 -228,146.5 -234,146.5 -240,152.5 -240,158.5 -240,158.5 -240,227.5 -240,227.5 -240,233.5 -234,239.5 -228,239.5"/>
<text text-anchor="middle" x="-149" y="161.7" font-family="Times,serif" font-size="14.00">Users::RegistrationsController</text>
<polyline fill="none" stroke="black" points="-240,169.5 -58,169.5 "/>
<text text-anchor="start" x="-232" y="184.7" font-family="Times,serif" font-size="14.00">after_sign_up_path_for</text>
<polyline fill="none" stroke="black" points="-240,192.5 -58,192.5 "/>
<polyline fill="none" stroke="black" points="-240,216.5 -58,216.5 "/>
<text text-anchor="start" x="-232" y="231.7" font-family="Times,serif" font-size="14.00">_layout</text>
</g>
<!-- RequestAppliesController -->
<g id="node14" class="node"><title>RequestAppliesController</title>
<path fill="none" stroke="black" d="M-292,-176.5C-292,-176.5 -158,-176.5 -158,-176.5 -152,-176.5 -146,-182.5 -146,-188.5 -146,-188.5 -146,-257.5 -146,-257.5 -146,-263.5 -152,-269.5 -158,-269.5 -158,-269.5 -292,-269.5 -292,-269.5 -298,-269.5 -304,-263.5 -304,-257.5 -304,-257.5 -304,-188.5 -304,-188.5 -304,-182.5 -298,-176.5 -292,-176.5"/>
<text text-anchor="middle" x="-225" y="-254.3" font-family="Times,serif" font-size="14.00">RequestAppliesController</text>
<polyline fill="none" stroke="black" points="-304,-246.5 -146,-246.5 "/>
<text text-anchor="start" x="-296" y="-231.3" font-family="Times,serif" font-size="14.00">index</text>
<polyline fill="none" stroke="black" points="-304,-223.5 -146,-223.5 "/>
<polyline fill="none" stroke="black" points="-304,-199.5 -146,-199.5 "/>
<text text-anchor="start" x="-296" y="-184.3" font-family="Times,serif" font-size="14.00">_layout</text>
</g>
</g>
</svg>
