<?xml version="1.0" encoding="UTF-8" standalone="no"?>
<!DOCTYPE svg PUBLIC "-//W3C//DTD SVG 1.1//EN"
 "http://www.w3.org/Graphics/SVG/1.1/DTD/svg11.dtd">
<!-- Generated by graphviz version 2.38.0 (20140413.2041)
 -->
<!-- Title: models_diagram Pages: 1 -->
<svg width="563pt" height="799pt"
 viewBox="0.00 0.00 562.50 799.00" xmlns="http://www.w3.org/2000/svg" xmlns:xlink="http://www.w3.org/1999/xlink">
<g id="graph0" class="graph" transform="scale(1 1) rotate(0) translate(4 795)">
<title>models_diagram</title>
<polygon fill="none" stroke="none" points="-4,4 -4,-795 558.5,-795 558.5,4 -4,4"/>
<!-- _diagram_info -->
<g id="node1" class="node"><title>_diagram_info</title>
<text text-anchor="start" x="8" y="-754.6" font-family="Times,serif" font-size="13.00">Models diagram</text>
<text text-anchor="start" x="8" y="-740.6" font-family="Times,serif" font-size="13.00">Date: Aug 30 2016 &#45; 20:30</text>
<text text-anchor="start" x="8" y="-726.6" font-family="Times,serif" font-size="13.00">Migration version: 20160830225121</text>
<text text-anchor="start" x="8" y="-712.6" font-family="Times,serif" font-size="13.00">Generated by RailRoady 1.5.1</text>
<text text-anchor="start" x="8" y="-698.6" font-family="Times,serif" font-size="13.00">http://railroady.prestonlee.com</text>
</g>
<!-- Interest -->
<g id="node2" class="node"><title>Interest</title>
<path fill="none" stroke="black" d="M244.5,-684.5C244.5,-684.5 351.5,-684.5 351.5,-684.5 357.5,-684.5 363.5,-690.5 363.5,-696.5 363.5,-696.5 363.5,-763.5 363.5,-763.5 363.5,-769.5 357.5,-775.5 351.5,-775.5 351.5,-775.5 244.5,-775.5 244.5,-775.5 238.5,-775.5 232.5,-769.5 232.5,-763.5 232.5,-763.5 232.5,-696.5 232.5,-696.5 232.5,-690.5 238.5,-684.5 244.5,-684.5"/>
<text text-anchor="middle" x="298" y="-760.3" font-family="Times,serif" font-size="14.00">Interest</text>
<polyline fill="none" stroke="black" points="232.5,-752.5 363.5,-752.5 "/>
<text text-anchor="start" x="240.5" y="-737.3" font-family="Times,serif" font-size="14.00">id :INTEGER</text>
<text text-anchor="start" x="240.5" y="-722.3" font-family="Times,serif" font-size="14.00">name :varchar</text>
<text text-anchor="start" x="240.5" y="-707.3" font-family="Times,serif" font-size="14.00">created_at :datetime</text>
<text text-anchor="start" x="240.5" y="-692.3" font-family="Times,serif" font-size="14.00">updated_at :datetime</text>
</g>
<!-- UserInterest -->
<g id="node4" class="node"><title>UserInterest</title>
<path fill="none" stroke="black" d="M259.5,-8C259.5,-8 366.5,-8 366.5,-8 372.5,-8 378.5,-14 378.5,-20 378.5,-20 378.5,-102 378.5,-102 378.5,-108 372.5,-114 366.5,-114 366.5,-114 259.5,-114 259.5,-114 253.5,-114 247.5,-108 247.5,-102 247.5,-102 247.5,-20 247.5,-20 247.5,-14 253.5,-8 259.5,-8"/>
<text text-anchor="middle" x="313" y="-98.8" font-family="Times,serif" font-size="14.00">UserInterest</text>
<polyline fill="none" stroke="black" points="247.5,-91 378.5,-91 "/>
<text text-anchor="start" x="255.5" y="-75.8" font-family="Times,serif" font-size="14.00">id :INTEGER</text>
<text text-anchor="start" x="255.5" y="-60.8" font-family="Times,serif" font-size="14.00">user_id :integer</text>
<text text-anchor="start" x="255.5" y="-45.8" font-family="Times,serif" font-size="14.00">interest_id :integer</text>
<text text-anchor="start" x="255.5" y="-30.8" font-family="Times,serif" font-size="14.00">created_at :datetime</text>
<text text-anchor="start" x="255.5" y="-15.8" font-family="Times,serif" font-size="14.00">updated_at :datetime</text>
</g>
<!-- Interest&#45;&gt;UserInterest -->
<g id="edge1" class="edge"><title>Interest&#45;&gt;UserInterest</title>
<path fill="none" stroke="#0ab224" d="M289.171,-676.208C273.779,-574.877 246.614,-346.449 279,-158 280.934,-146.746 284.056,-135.061 287.644,-123.878"/>
<ellipse fill="none" stroke="#0ab224" cx="289.786" cy="-680.204" rx="4.00001" ry="4.00001"/>
<polygon fill="#0ab224" stroke="#0ab224" points="287.71,-123.681 295.163,-115.638 289.304,-118.942 290.898,-114.203 290.898,-114.203 290.898,-114.203 289.304,-118.942 286.633,-112.768 287.71,-123.681 287.71,-123.681"/>
</g>
<!-- Request -->
<g id="node5" class="node"><title>Request</title>
<path fill="none" stroke="black" d="M338,-436.5C338,-436.5 446,-436.5 446,-436.5 452,-436.5 458,-442.5 458,-448.5 458,-448.5 458,-620.5 458,-620.5 458,-626.5 452,-632.5 446,-632.5 446,-632.5 338,-632.5 338,-632.5 332,-632.5 326,-626.5 326,-620.5 326,-620.5 326,-448.5 326,-448.5 326,-442.5 332,-436.5 338,-436.5"/>
<text text-anchor="middle" x="392" y="-617.3" font-family="Times,serif" font-size="14.00">Request</text>
<polyline fill="none" stroke="black" points="326,-609.5 458,-609.5 "/>
<text text-anchor="start" x="334" y="-594.3" font-family="Times,serif" font-size="14.00">id :INTEGER</text>
<text text-anchor="start" x="334" y="-579.3" font-family="Times,serif" font-size="14.00">user_id :integer</text>
<text text-anchor="start" x="334" y="-564.3" font-family="Times,serif" font-size="14.00">interest_id :integer</text>
<text text-anchor="start" x="334" y="-549.3" font-family="Times,serif" font-size="14.00">description :text</text>
<text text-anchor="start" x="334" y="-534.3" font-family="Times,serif" font-size="14.00">day_time :datetime</text>
<text text-anchor="start" x="334" y="-519.3" font-family="Times,serif" font-size="14.00">state_request :integer</text>
<text text-anchor="start" x="334" y="-504.3" font-family="Times,serif" font-size="14.00">location :varchar</text>
<text text-anchor="start" x="334" y="-489.3" font-family="Times,serif" font-size="14.00">date_end :datetime</text>
<text text-anchor="start" x="334" y="-474.3" font-family="Times,serif" font-size="14.00">created_at :datetime</text>
<text text-anchor="start" x="334" y="-459.3" font-family="Times,serif" font-size="14.00">updated_at :datetime</text>
<text text-anchor="start" x="334" y="-444.3" font-family="Times,serif" font-size="14.00">title :text</text>
</g>
<!-- Interest&#45;&gt;Request -->
<g id="edge3" class="edge"><title>Interest&#45;&gt;Request</title>
<path fill="none" stroke="#6f3318" d="M323.394,-676.726C328.661,-665.884 334.391,-654.089 340.22,-642.09"/>
<ellipse fill="none" stroke="#6f3318" cx="321.55" cy="-680.523" rx="4.00002" ry="4.00002"/>
<polygon fill="#6f3318" stroke="#6f3318" points="340.321,-641.883 348.738,-634.854 342.505,-637.385 344.69,-632.888 344.69,-632.888 344.69,-632.888 342.505,-637.385 340.643,-630.921 340.321,-641.883 340.321,-641.883"/>
</g>
<!-- User -->
<g id="node7" class="node"><title>User</title>
<path fill="none" stroke="black" d="M300,-158.5C300,-158.5 476,-158.5 476,-158.5 482,-158.5 488,-164.5 488,-170.5 488,-170.5 488,-387.5 488,-387.5 488,-393.5 482,-399.5 476,-399.5 476,-399.5 300,-399.5 300,-399.5 294,-399.5 288,-393.5 288,-387.5 288,-387.5 288,-170.5 288,-170.5 288,-164.5 294,-158.5 300,-158.5"/>
<text text-anchor="middle" x="388" y="-384.3" font-family="Times,serif" font-size="14.00">User</text>
<polyline fill="none" stroke="black" points="288,-376.5 488,-376.5 "/>
<text text-anchor="start" x="296" y="-361.3" font-family="Times,serif" font-size="14.00">id :INTEGER</text>
<text text-anchor="start" x="296" y="-346.3" font-family="Times,serif" font-size="14.00">email :varchar</text>
<text text-anchor="start" x="296" y="-331.3" font-family="Times,serif" font-size="14.00">encrypted_password :varchar</text>
<text text-anchor="start" x="296" y="-316.3" font-family="Times,serif" font-size="14.00">reset_password_token :varchar</text>
<text text-anchor="start" x="296" y="-301.3" font-family="Times,serif" font-size="14.00">reset_password_sent_at :datetime</text>
<text text-anchor="start" x="296" y="-286.3" font-family="Times,serif" font-size="14.00">remember_created_at :datetime</text>
<text text-anchor="start" x="296" y="-271.3" font-family="Times,serif" font-size="14.00">sign_in_count :integer</text>
<text text-anchor="start" x="296" y="-256.3" font-family="Times,serif" font-size="14.00">current_sign_in_at :datetime</text>
<text text-anchor="start" x="296" y="-241.3" font-family="Times,serif" font-size="14.00">last_sign_in_at :datetime</text>
<text text-anchor="start" x="296" y="-226.3" font-family="Times,serif" font-size="14.00">current_sign_in_ip :varchar</text>
<text text-anchor="start" x="296" y="-211.3" font-family="Times,serif" font-size="14.00">last_sign_in_ip :varchar</text>
<text text-anchor="start" x="296" y="-196.3" font-family="Times,serif" font-size="14.00">created_at :datetime</text>
<text text-anchor="start" x="296" y="-181.3" font-family="Times,serif" font-size="14.00">updated_at :datetime</text>
<text text-anchor="start" x="296" y="-166.3" font-family="Times,serif" font-size="14.00">name :varchar</text>
</g>
<!-- Interest&#45;&gt;User -->
<g id="edge2" class="edge"><title>Interest&#45;&gt;User</title>
<path fill="none" stroke="#dc2537" d="M295.71,-673.991C294.576,-614.418 296.658,-517.038 317,-436 319.208,-427.204 321.896,-418.292 324.92,-409.415"/>
<polygon fill="#dc2537" stroke="#dc2537" points="295.717,-674.304 291.447,-684.404 295.832,-679.303 295.946,-684.302 295.946,-684.302 295.946,-684.302 295.832,-679.303 300.445,-684.199 295.717,-674.304 295.717,-674.304"/>
<polygon fill="#dc2537" stroke="#dc2537" points="324.985,-409.23 332.566,-401.307 326.655,-404.517 328.325,-399.804 328.325,-399.804 328.325,-399.804 326.655,-404.517 324.083,-398.301 324.985,-409.23 324.985,-409.23"/>
</g>
<!-- Comentary -->
<g id="node3" class="node"><title>Comentary</title>
<path fill="none" stroke="black" d="M393.5,-669.5C393.5,-669.5 524.5,-669.5 524.5,-669.5 530.5,-669.5 536.5,-675.5 536.5,-681.5 536.5,-681.5 536.5,-778.5 536.5,-778.5 536.5,-784.5 530.5,-790.5 524.5,-790.5 524.5,-790.5 393.5,-790.5 393.5,-790.5 387.5,-790.5 381.5,-784.5 381.5,-778.5 381.5,-778.5 381.5,-681.5 381.5,-681.5 381.5,-675.5 387.5,-669.5 393.5,-669.5"/>
<text text-anchor="middle" x="459" y="-775.3" font-family="Times,serif" font-size="14.00">Comentary</text>
<polyline fill="none" stroke="black" points="381.5,-767.5 536.5,-767.5 "/>
<text text-anchor="start" x="389.5" y="-752.3" font-family="Times,serif" font-size="14.00">id :INTEGER</text>
<text text-anchor="start" x="389.5" y="-737.3" font-family="Times,serif" font-size="14.00">user_id :integer</text>
<text text-anchor="start" x="389.5" y="-722.3" font-family="Times,serif" font-size="14.00">request_apply_id :integer</text>
<text text-anchor="start" x="389.5" y="-707.3" font-family="Times,serif" font-size="14.00">comentary :text</text>
<text text-anchor="start" x="389.5" y="-692.3" font-family="Times,serif" font-size="14.00">created_at :datetime</text>
<text text-anchor="start" x="389.5" y="-677.3" font-family="Times,serif" font-size="14.00">updated_at :datetime</text>
</g>
<!-- RequestApply -->
<g id="node6" class="node"><title>RequestApply</title>
<path fill="none" stroke="black" d="M435.5,-0.5C435.5,-0.5 542.5,-0.5 542.5,-0.5 548.5,-0.5 554.5,-6.5 554.5,-12.5 554.5,-12.5 554.5,-109.5 554.5,-109.5 554.5,-115.5 548.5,-121.5 542.5,-121.5 542.5,-121.5 435.5,-121.5 435.5,-121.5 429.5,-121.5 423.5,-115.5 423.5,-109.5 423.5,-109.5 423.5,-12.5 423.5,-12.5 423.5,-6.5 429.5,-0.5 435.5,-0.5"/>
<text text-anchor="middle" x="489" y="-106.3" font-family="Times,serif" font-size="14.00">RequestApply</text>
<polyline fill="none" stroke="black" points="423.5,-98.5 554.5,-98.5 "/>
<text text-anchor="start" x="431.5" y="-83.3" font-family="Times,serif" font-size="14.00">id :INTEGER</text>
<text text-anchor="start" x="431.5" y="-68.3" font-family="Times,serif" font-size="14.00">user_id :integer</text>
<text text-anchor="start" x="431.5" y="-53.3" font-family="Times,serif" font-size="14.00">state :integer</text>
<text text-anchor="start" x="431.5" y="-38.3" font-family="Times,serif" font-size="14.00">created_at :datetime</text>
<text text-anchor="start" x="431.5" y="-23.3" font-family="Times,serif" font-size="14.00">updated_at :datetime</text>
<text text-anchor="start" x="431.5" y="-8.3" font-family="Times,serif" font-size="14.00">request_id :integer</text>
</g>
<!-- Request&#45;&gt;RequestApply -->
<g id="edge4" class="edge"><title>Request&#45;&gt;RequestApply</title>
<path fill="none" stroke="#0ddb88" d="M463.303,-460.465C477.102,-442.103 489.569,-421.467 497,-400 527.698,-311.314 516.93,-201.563 504.517,-131.653"/>
<ellipse fill="none" stroke="#0ddb88" cx="460.608" cy="-463.958" rx="4.00002" ry="4.00002"/>
<polygon fill="#0ddb88" stroke="#0ddb88" points="504.484,-131.47 507.105,-120.822 503.581,-126.553 502.679,-121.635 502.679,-121.635 502.679,-121.635 503.581,-126.553 498.253,-122.447 504.484,-131.47 504.484,-131.47"/>
</g>
<!-- Request&#45;&gt;User -->
<g id="edge5" class="edge"><title>Request&#45;&gt;User</title>
<path fill="none" stroke="#b264e7" d="M383.624,-426.005C383.5,-420.67 383.393,-415.288 383.302,-409.899"/>
<polygon fill="#b264e7" stroke="#b264e7" points="383.629,-426.218 379.381,-436.328 383.754,-431.217 383.88,-436.215 383.88,-436.215 383.88,-436.215 383.754,-431.217 388.378,-436.102 383.629,-426.218 383.629,-426.218"/>
<polygon fill="#b264e7" stroke="#b264e7" points="383.296,-409.534 387.645,-399.468 383.221,-404.535 383.146,-399.536 383.146,-399.536 383.146,-399.536 383.221,-404.535 378.646,-399.603 383.296,-409.534 383.296,-409.534"/>
</g>
<!-- User&#45;&gt;UserInterest -->
<g id="edge6" class="edge"><title>User&#45;&gt;UserInterest</title>
<path fill="none" stroke="#e3497c" d="M343.808,-150.728C340.574,-141.414 337.409,-132.297 334.412,-123.668"/>
<ellipse fill="none" stroke="#e3497c" cx="345.13" cy="-154.535" rx="4.00001" ry="4.00001"/>
<polygon fill="#e3497c" stroke="#e3497c" points="334.387,-123.594 335.358,-112.671 332.747,-118.871 331.107,-114.147 331.107,-114.147 331.107,-114.147 332.747,-118.871 326.856,-115.623 334.387,-123.594 334.387,-123.594"/>
</g>
<!-- User&#45;&gt;Request -->
<g id="edge7" class="edge"><title>User&#45;&gt;Request</title>
<path fill="none" stroke="#bd9187" d="M396.767,-407.826C396.86,-413.908 396.933,-419.986 396.984,-426.005"/>
<ellipse fill="none" stroke="#bd9187" cx="396.694" cy="-403.535" rx="4" ry="4"/>
<polygon fill="#bd9187" stroke="#bd9187" points="396.985,-426.215 392.55,-436.244 397.018,-431.215 397.05,-436.215 397.05,-436.215 397.05,-436.215 397.018,-431.215 401.55,-436.186 396.985,-426.215 396.985,-426.215"/>
</g>
<!-- User&#45;&gt;RequestApply -->
<g id="edge8" class="edge"><title>User&#45;&gt;RequestApply</title>
<path fill="none" stroke="#c7d7f2" d="M447.417,-150.929C450.588,-144.148 453.71,-137.471 456.732,-131.009"/>
<ellipse fill="none" stroke="#c7d7f2" cx="445.659" cy="-154.69" rx="4.00002" ry="4.00002"/>
<polygon fill="#c7d7f2" stroke="#c7d7f2" points="456.845,-130.766 465.157,-123.614 458.963,-126.237 461.081,-121.708 461.081,-121.708 461.081,-121.708 458.963,-126.237 457.005,-119.802 456.845,-130.766 456.845,-130.766"/>
</g>
</g>
</svg>
