<?xml version="1.0" encoding="UTF-8" standalone="no"?>
<!DOCTYPE svg PUBLIC "-//W3C//DTD SVG 1.1//EN"
 "http://www.w3.org/Graphics/SVG/1.1/DTD/svg11.dtd">
<!-- Generated by graphviz version 2.38.0 (20140413.2041)
 -->
<!-- Title: models_diagram Pages: 1 -->
<svg width="433pt" height="302pt"
 viewBox="0.00 0.00 433.09 302.00" xmlns="http://www.w3.org/2000/svg" xmlns:xlink="http://www.w3.org/1999/xlink">
<g id="graph0" class="graph" transform="scale(1 1) rotate(0) translate(4 298)">
<title>models_diagram</title>
<polygon fill="none" stroke="none" points="-4,4 -4,-298 429.095,-298 429.095,4 -4,4"/>
<!-- _diagram_info -->
<g id="node1" class="node"><title>_diagram_info</title>
<text text-anchor="start" x="8" y="-279.6" font-family="Times,serif" font-size="13.00">Models diagram</text>
<text text-anchor="start" x="8" y="-265.6" font-family="Times,serif" font-size="13.00">Date: Aug 30 2016 &#45; 20:30</text>
<text text-anchor="start" x="8" y="-251.6" font-family="Times,serif" font-size="13.00">Migration version: 20160830225121</text>
<text text-anchor="start" x="8" y="-237.6" font-family="Times,serif" font-size="13.00">Generated by RailRoady 1.5.1</text>
<text text-anchor="start" x="8" y="-223.6" font-family="Times,serif" font-size="13.00">http://railroady.prestonlee.com</text>
</g>
<!-- Interest -->
<g id="node2" class="node"><title>Interest</title>
<ellipse fill="none" stroke="black" cx="269" cy="-255" rx="37.0935" ry="18"/>
<text text-anchor="middle" x="269" y="-251.3" font-family="Times,serif" font-size="14.00">Interest</text>
</g>
<!-- UserInterest -->
<g id="node4" class="node"><title>UserInterest</title>
<ellipse fill="none" stroke="black" cx="231" cy="-18" rx="53.8905" ry="18"/>
<text text-anchor="middle" x="231" y="-14.3" font-family="Times,serif" font-size="14.00">UserInterest</text>
</g>
<!-- Interest&#45;&gt;UserInterest -->
<g id="edge1" class="edge"><title>Interest&#45;&gt;UserInterest</title>
<path fill="none" stroke="#483002" d="M264.903,-228.666C257.69,-184.054 242.784,-91.8734 235.376,-46.0636"/>
<ellipse fill="none" stroke="#483002" cx="265.567" cy="-232.771" rx="4.00001" ry="4.00001"/>
<polygon fill="#483002" stroke="#483002" points="235.343,-45.8603 238.189,-35.2701 234.545,-40.9244 233.747,-35.9885 233.747,-35.9885 233.747,-35.9885 234.545,-40.9244 229.305,-36.7069 235.343,-45.8603 235.343,-45.8603"/>
</g>
<!-- Request -->
<g id="node5" class="node"><title>Request</title>
<ellipse fill="none" stroke="black" cx="336" cy="-162" rx="38.9931" ry="18"/>
<text text-anchor="middle" x="336" y="-158.3" font-family="Times,serif" font-size="14.00">Request</text>
</g>
<!-- Interest&#45;&gt;Request -->
<g id="edge3" class="edge"><title>Interest&#45;&gt;Request</title>
<path fill="none" stroke="#fad0b8" d="M285.803,-231.177C295.527,-217.971 307.771,-201.341 317.733,-187.811"/>
<ellipse fill="none" stroke="#fad0b8" cx="283.35" cy="-234.51" rx="4.00002" ry="4.00002"/>
<polygon fill="#fad0b8" stroke="#fad0b8" points="317.971,-187.488 327.523,-182.103 320.935,-183.461 323.9,-179.435 323.9,-179.435 323.9,-179.435 320.935,-183.461 320.276,-176.767 317.971,-187.488 317.971,-187.488"/>
</g>
<!-- User -->
<g id="node7" class="node"><title>User</title>
<ellipse fill="none" stroke="black" cx="309" cy="-90" rx="27.0966" ry="18"/>
<text text-anchor="middle" x="309" y="-86.3" font-family="Times,serif" font-size="14.00">User</text>
</g>
<!-- Interest&#45;&gt;User -->
<g id="edge2" class="edge"><title>Interest&#45;&gt;User</title>
<path fill="none" stroke="#eba174" d="M272.105,-226.834C275.051,-204.357 280.2,-171.737 288,-144 290.542,-134.961 294.084,-125.342 297.536,-116.815"/>
<polygon fill="#eba174" stroke="#eba174" points="272.077,-227.065 266.369,-236.428 271.455,-232.026 270.834,-236.987 270.834,-236.987 270.834,-236.987 271.455,-232.026 275.299,-237.546 272.077,-227.065 272.077,-227.065"/>
<polygon fill="#eba174" stroke="#eba174" points="297.614,-116.628 305.631,-109.146 299.548,-112.017 301.481,-107.406 301.481,-107.406 301.481,-107.406 299.548,-112.017 297.332,-105.666 297.614,-116.628 297.614,-116.628"/>
</g>
<!-- Comentary -->
<g id="node3" class="node"><title>Comentary</title>
<ellipse fill="none" stroke="black" cx="374" cy="-255" rx="50.0912" ry="18"/>
<text text-anchor="middle" x="374" y="-251.3" font-family="Times,serif" font-size="14.00">Comentary</text>
</g>
<!-- RequestApply -->
<g id="node6" class="node"><title>RequestApply</title>
<ellipse fill="none" stroke="black" cx="364" cy="-18" rx="61.1893" ry="18"/>
<text text-anchor="middle" x="364" y="-14.3" font-family="Times,serif" font-size="14.00">RequestApply</text>
</g>
<!-- Request&#45;&gt;RequestApply -->
<g id="edge4" class="edge"><title>Request&#45;&gt;RequestApply</title>
<path fill="none" stroke="#5a582f" d="M340.944,-135.929C345.913,-110.725 353.55,-71.9942 358.657,-46.0947"/>
<ellipse fill="none" stroke="#5a582f" cx="340.151" cy="-139.947" rx="4.00001" ry="4.00001"/>
<polygon fill="#5a582f" stroke="#5a582f" points="358.676,-46.0004 365.026,-37.0599 359.643,-41.0948 360.611,-36.1893 360.611,-36.1893 360.611,-36.1893 359.643,-41.0948 356.196,-35.3187 358.676,-46.0004 358.676,-46.0004"/>
</g>
<!-- Request&#45;&gt;User -->
<g id="edge5" class="edge"><title>Request&#45;&gt;User</title>
<path fill="none" stroke="#645054" d="M319.722,-135.687C317.229,-129.964 314.851,-123.865 312.849,-118.073"/>
<polygon fill="#645054" stroke="#645054" points="319.725,-135.695 319.856,-146.66 321.831,-140.23 323.937,-144.765 323.937,-144.765 323.937,-144.765 321.831,-140.23 328.018,-142.869 319.725,-135.695 319.725,-135.695"/>
<polygon fill="#645054" stroke="#645054" points="312.718,-117.66 313.999,-106.769 311.213,-112.892 309.708,-108.124 309.708,-108.124 309.708,-108.124 311.213,-112.892 305.417,-109.479 312.718,-117.66 312.718,-117.66"/>
</g>
<!-- User&#45;&gt;UserInterest -->
<g id="edge6" class="edge"><title>User&#45;&gt;UserInterest</title>
<path fill="none" stroke="#559af3" d="M287.191,-69.428C277.675,-60.8875 266.451,-50.8148 256.546,-41.9261"/>
<ellipse fill="none" stroke="#559af3" cx="290.239" cy="-72.1628" rx="4.00002" ry="4.00002"/>
<polygon fill="#559af3" stroke="#559af3" points="256.386,-41.7825 251.949,-31.7542 252.665,-38.4429 248.944,-35.1033 248.944,-35.1033 248.944,-35.1033 252.665,-38.4429 245.938,-38.4524 256.386,-41.7825 256.386,-41.7825"/>
</g>
<!-- User&#45;&gt;Request -->
<g id="edge7" class="edge"><title>User&#45;&gt;Request</title>
<path fill="none" stroke="#25da18" d="M324.397,-114.316C327.23,-120.652 329.958,-127.566 332.206,-134.084"/>
<ellipse fill="none" stroke="#25da18" cx="322.491" cy="-110.287" rx="4.00002" ry="4.00002"/>
<polygon fill="#25da18" stroke="#25da18" points="332.23,-134.161 330.951,-145.052 333.736,-138.929 335.242,-143.697 335.242,-143.697 335.242,-143.697 333.736,-138.929 339.533,-142.341 332.23,-134.161 332.23,-134.161"/>
</g>
<!-- User&#45;&gt;RequestApply -->
<g id="edge8" class="edge"><title>User&#45;&gt;RequestApply</title>
<path fill="none" stroke="#d41248" d="M325.978,-67.3922C331.881,-59.8791 338.546,-51.3964 344.628,-43.6555"/>
<ellipse fill="none" stroke="#d41248" cx="323.405" cy="-70.6658" rx="4.00002" ry="4.00002"/>
<polygon fill="#d41248" stroke="#d41248" points="344.757,-43.4911 354.474,-38.4081 347.846,-39.5595 350.935,-35.6278 350.935,-35.6278 350.935,-35.6278 347.846,-39.5595 347.397,-32.8476 344.757,-43.4911 344.757,-43.4911"/>
</g>
</g>
</svg>
